<?xml version="1.0" encoding="iso-8859-1"?>
<!-- Generator: Adobe Illustrator 18.0.0, SVG Export Plug-In . SVG Version: 6.00 Build 0)  -->
<!DOCTYPE svg PUBLIC "-//W3C//DTD SVG 1.1//EN" "http://www.w3.org/Graphics/SVG/1.1/DTD/svg11.dtd">
<svg version="1.1" id="Capa_1" xmlns="http://www.w3.org/2000/svg" xmlns:xlink="http://www.w3.org/1999/xlink" x="0px" y="0px"
	 viewBox="0 0 58 58" style="enable-background:new 0 0 58 58;" xml:space="preserve">
<g>
	<path d="M51.5,39V13.978c0-0.766-0.092-1.333-0.55-1.792L39.313,0.55C38.964,0.201,38.48,0,37.985,0H8.963
		C7.777,0,6.5,0.916,6.5,2.926V39H51.5z M37.5,3.391c0-0.458,0.553-0.687,0.877-0.363l10.095,10.095
		C48.796,13.447,48.567,14,48.109,14H37.5V3.391z M34.793,18.707c-0.391-0.391-0.391-1.023,0-1.414s1.023-0.391,1.414,0l6,6
		c0.391,0.391,0.391,1.023,0,1.414l-6,6C36.012,30.902,35.756,31,35.5,31s-0.512-0.098-0.707-0.293
		c-0.391-0.391-0.391-1.023,0-1.414L40.086,24L34.793,18.707z M16.793,23.293l6-6c0.391-0.391,1.023-0.391,1.414,0
		s0.391,1.023,0,1.414L18.914,24l5.293,5.293c0.391,0.391,0.391,1.023,0,1.414C24.012,30.902,23.756,31,23.5,31
		s-0.512-0.098-0.707-0.293l-6-6C16.402,24.316,16.402,23.684,16.793,23.293z"/>
	<path d="M6.5,41v15c0,1.009,1.22,2,2.463,2h40.074c1.243,0,2.463-0.991,2.463-2V41H6.5z M18.455,54h-1.641v-4.539h-4.361V54h-1.668
		V43.924h1.668v4.416h4.361v-4.416h1.641V54z M28.107,45.045H25.1V54h-1.654v-8.955h-3.008v-1.121h7.67V45.045z M39.373,54h-1.668
		v-6.932l-2.256,5.605H34l-2.27-5.605V54h-1.668V43.924h1.668l2.994,6.891l2.98-6.891h1.668V54z M48.205,54h-6.303V43.924h1.668
		v8.832h4.635V54z"/>
</g>
<g>
</g>
<g>
</g>
<g>
</g>
<g>
</g>
<g>
</g>
<g>
</g>
<g>
</g>
<g>
</g>
<g>
</g>
<g>
</g>
<g>
</g>
<g>
</g>
<g>
</g>
<g>
</g>
<g>
</g>
</svg>
